HIERARCHY
ROOT SpineBase
{
  OFFSET 0.000000 0.000000 0.000000
  CHANNELS 6 Xposition Yposition Zposition Zrotation Xrotation Yrotation
  JOINT SpineMid
  {
    OFFSET -0.000000 20.246578 0.000000
    CHANNELS 3 Zrotation Xrotation Yrotation
    JOINT SpineShoulder
    {
      OFFSET -0.100241 14.544633 -0.611102
      CHANNELS 3 Zrotation Xrotation Yrotation
      JOINT Neck
      {
        OFFSET -0.106551 4.788024 -0.369310
        CHANNELS 3 Zrotation Xrotation Yrotation
        JOINT Head
        {
          OFFSET -1.919034 7.079442 1.053876
          CHANNELS 3 Zrotation Xrotation Yrotation
          End Site
          {
            OFFSET 0 0 0
          }
        }
      }
      JOINT ShoulderLeft
      {
        OFFSET -12.508011 -3.559097 -0.209226
        CHANNELS 3 Zrotation Xrotation Yrotation
        JOINT ElbowLeft
        {
          OFFSET -1.175684 -17.529059 2.341468
          CHANNELS 3 Zrotation Xrotation Yrotation
          JOINT WristLeft
          {
            OFFSET -0.220954 -20.363782 -0.694087
            CHANNELS 3 Zrotation Xrotation Yrotation
            JOINT HandLeft
            {
              OFFSET -0.217089 -7.179540 0.810342
              CHANNELS 3 Zrotation Xrotation Yrotation
              JOINT HandTipLeft
              {
                OFFSET 0.050440 -3.760995 -0.665196
                CHANNELS 3 Zrotation Xrotation Yrotation
                End Site
                {
                  OFFSET 0 0 0
                }
              }
              JOINT ThumbLeft
              {
                OFFSET 1.080386 0.270982 -3.094432
                CHANNELS 3 Zrotation Xrotation Yrotation
                End Site
                {
                  OFFSET 0 0 0
                }
              }
            }
          }
        }
      }
      JOINT ShoulderRight
      {
        OFFSET 1.146073 -5.743917 -8.038217
        CHANNELS 3 Zrotation Xrotation Yrotation
        JOINT ElbowRight
        {
          OFFSET 2.458610 -10.823272 -11.453336
          CHANNELS 3 Zrotation Xrotation Yrotation
          JOINT WristRight
          {
            OFFSET -2.846575 -18.768538 5.557724
            CHANNELS 3 Zrotation Xrotation Yrotation
            JOINT HandRight
            {
              OFFSET 0.382836 -2.734662 0.863442
              CHANNELS 3 Zrotation Xrotation Yrotation
              JOINT HandTipRight
              {
                OFFSET 1.398936 -2.548525 -1.147212
                CHANNELS 3 Zrotation Xrotation Yrotation
                End Site
                {
                  OFFSET 0 0 0
                }
              }
              JOINT ThumbRight
              {
                OFFSET -1.889951 -0.290117 -4.582318
                CHANNELS 3 Zrotation Xrotation Yrotation
                End Site
                {
                  OFFSET 0 0 0
                }
              }
            }
          }
        }
      }
    }
  }
  JOINT HipLeft
  {
    OFFSET -4.537596 -0.561881 2.347900
    CHANNELS 3 Zrotation Xrotation Yrotation
    JOINT KneeLeft
    {
      OFFSET 2.194035 -27.468838 -2.374496
      CHANNELS 3 Zrotation Xrotation Yrotation
      JOINT AnkleLeft
      {
        OFFSET 3.012987 -24.700921 9.890619
        CHANNELS 3 Zrotation Xrotation Yrotation
        JOINT FootLeft
        {
          OFFSET -2.917989 4.971515 -8.530287
          CHANNELS 3 Zrotation Xrotation Yrotation
          End Site
          {
            OFFSET 0 0 0
          }
        }
      }
    }
  }
  JOINT HipRight
  {
    OFFSET 2.129506 0.670740 -7.417734
    CHANNELS 3 Zrotation Xrotation Yrotation
    JOINT KneeRight
    {
      OFFSET 7.136578 -26.445135 9.729060
      CHANNELS 3 Zrotation Xrotation Yrotation
      JOINT AnkleRight
      {
        OFFSET -11.000808 13.025546 -13.312936
        CHANNELS 3 Zrotation Xrotation Yrotation
        JOINT FootRight
        {
          OFFSET 0.231255 -7.055431 -1.045905
          CHANNELS 3 Zrotation Xrotation Yrotation
          End Site
          {
            OFFSET 0 0 0
          }
        }
      }
    }
  }
}
MOTION
Frames: 11
Frame Time: 0.033333
169.165484 73.507436 332.095022 9.705482 -1.321426 60.004445 0.208843 -2.067313 -59.364598 0.157913 -1.998990 0.542213 -28.867013 -7.358250 -1.529456 0.000000 0.000000 0.000000 -8.997649 15.609204 -1.264189 4.980367 -7.107846 1.076244 -0.487128 7.941678 0.225284 13.136748 -15.220418 0.070891 0.000000 0.000000 0.000000 0.000000 0.000000 0.000000 2.298423 55.814407 -6.363109 -50.362913 -24.765884 -44.864807 104.099341 -29.953184 45.325958 -104.305820 -21.569514 69.262119 0.000000 0.000000 0.000000 0.000000 0.000000 0.000000 3.027069 2.082826 -60.876593 -12.831441 -2.067350 -1.049981 -4.054021 7.591834 -7.365655 0.000000 0.000000 0.000000 48.278072 -18.407066 -27.099583 -33.745849 -7.273173 0.289199 -33.888895 -15.358616 -28.430223 0.000000 0.000000 0.000000
169.284071 72.507890 331.637612 9.990405 -2.473296 58.350015 -0.520011 -2.377801 -57.569571 0.497686 -1.874231 0.523836 -27.795550 -8.710615 -2.340030 0.000000 0.000000 0.000000 -7.563126 19.934213 -1.549033 3.510897 -10.329608 1.169947 -2.640310 10.832396 -0.117078 5.345378 -8.500656 -0.456334 0.000000 0.000000 0.000000 0.000000 0.000000 0.000000 -9.014877 66.454451 6.009649 -42.262958 -35.043232 -47.021717 91.196634 -38.761081 44.986360 -94.534300 -36.484061 42.490806 0.000000 0.000000 0.000000 0.000000 0.000000 0.000000 4.240002 2.729987 -59.317349 -11.226518 -4.558009 -0.449243 -3.316337 5.374832 -5.247476 0.000000 0.000000 0.000000 54.180578 -14.957402 -24.484795 -37.347684 -9.594044 -1.977820 -38.781691 -15.020814 -28.704955 0.000000 0.000000 0.000000
170.368221 71.209477 330.192050 9.204335 -2.511220 52.955656 -0.658348 -2.150501 -52.235873 0.072567 -2.151893 0.453951 -22.488663 -12.414591 -4.304512 0.000000 0.000000 0.000000 -5.804657 18.302597 -1.275334 3.505319 -8.012434 0.790911 2.029577 19.097895 -0.891393 -12.481258 -8.284197 -2.414932 0.000000 0.000000 0.000000 0.000000 0.000000 0.000000 -34.174711 71.623532 34.387126 -24.901089 -53.722260 -37.711892 55.130129 -43.920956 29.934262 -86.485848 -35.204490 14.337551 0.000000 0.000000 0.000000 0.000000 0.000000 0.000000 0.155347 -0.278794 -53.781622 -10.393029 -0.638710 0.519735 -2.227358 7.188395 -1.954338 0.000000 0.000000 0.000000 58.063404 -8.550867 -20.634714 -39.142435 -12.290543 -3.652717 -41.076567 -15.520169 -28.816278 0.000000 0.000000 0.000000
171.496049 69.871692 328.539009 6.510439 -4.061857 42.859163 0.798757 -1.320889 -42.342734 0.216654 -1.875761 0.310420 -19.346716 -15.110881 -5.404202 0.000000 0.000000 0.000000 -3.955701 17.129236 -1.076807 4.970061 -8.957942 1.024298 4.838013 36.491669 -3.966479 -18.723887 -16.062398 -5.846166 0.000000 0.000000 0.000000 0.000000 0.000000 0.000000 -55.416976 67.483543 59.090091 -10.857305 -69.866354 -29.254954 16.281483 -36.019049 5.858042 -72.877932 -34.943461 -7.888826 0.000000 0.000000 0.000000 0.000000 0.000000 0.000000 1.148406 -4.190142 -43.977272 -11.461284 2.284695 1.087877 -0.222177 16.757029 8.286077 0.000000 0.000000 0.000000 64.060960 3.544909 -15.772185 -41.189076 -16.269242 -5.991437 -46.907335 -15.933058 -28.850474 0.000000 0.000000 0.000000
172.630319 69.613861 327.694909 6.773879 -5.761763 37.586524 1.334409 -0.612108 -37.023045 0.207464 -1.535614 0.286617 -20.349815 -17.404896 -6.372667 0.000000 0.000000 0.000000 -3.592399 18.673872 -1.221412 7.172091 -11.426220 1.674652 11.786496 50.085952 -10.145270 -35.377276 -18.806266 -15.066638 0.000000 0.000000 0.000000 0.000000 0.000000 0.000000 -71.503284 66.003360 76.024043 -13.918013 -83.718913 -33.433620 -12.241037 -21.888412 -7.946838 -46.326755 -34.282839 -21.052319 0.000000 0.000000 0.000000 0.000000 0.000000 0.000000 3.244749 -3.625405 -38.862764 -12.650507 2.803043 1.428857 -0.092020 24.663392 17.753104 0.000000 0.000000 0.000000 64.361311 13.640883 -17.838063 -39.558244 -21.604162 -6.457736 -47.778440 -16.807506 -29.132601 0.000000 0.000000 0.000000
174.569355 67.269392 327.300917 8.739208 -6.624292 26.870854 1.165363 0.510089 -26.129987 0.245758 -1.177354 0.326333 -19.781580 -18.744386 -7.019677 0.000000 0.000000 0.000000 -3.896409 19.819150 -1.502367 8.625890 -13.841035 2.346993 10.776048 41.644175 -7.931863 -46.918458 -12.452316 -15.539415 0.000000 0.000000 0.000000 0.000000 0.000000 0.000000 -75.792672 60.757741 79.394493 -135.795455 -81.646863 -157.016387 -12.728029 -4.846756 -7.811267 -48.598020 -36.144299 -23.953224 0.000000 0.000000 0.000000 0.000000 0.000000 0.000000 2.454870 -3.007023 -28.105488 -11.510864 4.902871 2.472186 -1.044715 29.770395 26.413400 0.000000 0.000000 0.000000 67.446436 30.423319 -17.442944 -44.519856 -27.447887 -11.303640 -49.984980 -18.789610 -29.830074 0.000000 0.000000 0.000000
176.416647 67.621081 327.433117 9.252098 -6.818715 25.129604 1.880874 1.113387 -24.409882 -0.267520 -1.026309 0.347746 -20.434907 -22.437124 -8.480299 0.000000 0.000000 0.000000 -3.296250 20.531293 -1.809260 10.654487 -16.774938 3.406978 1.107615 35.563829 -4.326433 -42.431079 -11.282335 -10.662728 0.000000 0.000000 0.000000 0.000000 0.000000 0.000000 -78.314465 56.167018 81.782778 -135.138445 -67.461183 -158.066982 -0.364719 0.310948 -8.950517 -57.109004 -38.652456 -33.976181 0.000000 0.000000 0.000000 0.000000 0.000000 0.000000 3.994277 -2.986683 -26.533579 -13.891234 4.577549 2.546415 3.823505 26.513121 30.215614 0.000000 0.000000 0.000000 66.046104 35.331058 -19.262808 -42.874401 -31.256449 -11.246237 -50.067756 -24.182036 -31.757752 0.000000 0.000000 0.000000
177.986359 64.484830 328.664955 10.326879 -7.785790 33.913254 1.885566 0.668497 -33.005851 -0.281190 -0.920879 0.368606 -20.122387 -21.126493 -8.061215 0.000000 0.000000 0.000000 -3.187066 22.860180 -2.152034 11.507027 -13.854895 3.278974 -11.575993 17.915661 -0.407689 -20.347728 2.078532 -0.737742 0.000000 0.000000 0.000000 0.000000 0.000000 0.000000 -81.974647 53.805549 85.054000 -128.470571 -38.654674 -149.085894 15.497274 -2.927299 -18.958054 -51.426873 -33.188649 -34.198765 0.000000 0.000000 0.000000 0.000000 0.000000 0.000000 3.860118 -0.438428 -35.261407 -15.315932 2.929517 1.559965 1.594704 29.237475 28.534370 0.000000 0.000000 0.000000 66.628280 30.009216 -26.525885 -39.747690 -33.970010 -9.791754 -51.061043 -22.731484 -31.297666 0.000000 0.000000 0.000000
184.935981 61.117282 338.832738 11.114065 -7.029241 24.327809 -3.994007 70.399426 -26.090677 57.133842 -53.995718 37.738029 -16.993076 -26.174971 -10.004165 0.000000 0.000000 0.000000 -2.880974 25.375979 -2.729697 15.798160 -16.123541 5.145428 -19.704304 7.721909 0.570169 -3.196889 11.535498 -0.406911 0.000000 0.000000 0.000000 0.000000 0.000000 0.000000 -80.007754 51.895722 81.839253 -118.819128 21.119055 -129.805257 16.154922 -9.470630 -48.839871 -22.382469 19.117040 -29.960559 0.000000 0.000000 0.000000 0.000000 0.000000 0.000000 2.672956 4.786160 -25.437178 -29.839653 17.982539 -0.887328 20.648077 4.125156 32.956798 0.000000 0.000000 0.000000 62.212131 42.610632 -24.014073 -37.885260 -38.637770 -9.624900 -52.693676 -5.409913 -25.004731 0.000000 0.000000 0.000000
177.505169 61.924943 325.386253 11.874883 -7.158028 51.512663 -7.654857 -19.271761 -50.071131 -8.756023 18.105790 -0.012352 -22.386203 -18.060460 -6.859397 0.000000 0.000000 0.000000 -2.337665 26.823268 -3.209617 11.115101 -20.210387 4.891962 -24.581385 9.013626 0.511163 11.166064 0.645631 0.443414 0.000000 0.000000 0.000000 0.000000 0.000000 0.000000 -84.121594 52.865118 85.526152 -136.554319 22.957919 -137.483251 -7.521346 -6.454760 -37.558093 -8.257651 37.668284 -55.955401 0.000000 0.000000 0.000000 0.000000 0.000000 0.000000 3.101273 -1.073748 -52.792581 -19.956269 -1.341127 -0.361148 8.749937 22.739792 23.001056 0.000000 0.000000 0.000000 62.665115 10.736476 -33.354562 -35.056743 -29.499095 -5.515654 -54.367454 3.761127 -21.456420 0.000000 0.000000 0.000000
171.653077 63.639634 315.367841 12.277487 -7.544411 48.015837 16.339797 42.002677 -56.451596 29.808476 -36.419276 14.131033 -22.329245 -16.559631 -6.365149 0.000000 0.000000 0.000000 -1.827309 29.633761 -3.803373 11.738139 -27.250435 6.807145 -39.124925 3.567366 1.347412 19.079753 -12.347915 1.465856 0.000000 0.000000 0.000000 0.000000 0.000000 0.000000 -89.884771 53.266617 91.441304 -145.669816 28.134286 -140.000288 -25.231042 1.779891 -15.833238 31.592525 35.590023 -105.086242 0.000000 0.000000 0.000000 0.000000 0.000000 0.000000 2.045379 -5.139586 -49.521017 -16.389254 -9.348140 1.695929 4.333342 29.276962 17.601147 0.000000 0.000000 0.000000 57.406400 12.047243 -32.209690 -30.232594 -26.429518 -1.720889 -55.942006 10.486267 -18.623404 0.000000 0.000000 0.000000
